<svg xmlns="http://www.w3.org/2000/svg" width="18" height="18" viewBox="0 0 18 18">
    <g fill="none" fill-rule="evenodd">
        <g fill="#23233F" fill-rule="nonzero">
            <g>
                <g>
                    <g>
                        <path d="M5.898 4.703L7.22 6.022c-1.374.405-2.676 1.295-3.915 2.687l-.23.264L3.053 9l.087.102c1.71 1.993 3.542 3.017 5.517 3.123l.27.009H9c1.194 0 2.337-.329 3.432-.998l1.222 1.22c-1.45.973-3.003 1.466-4.654 1.466-2.874 0-5.452-1.495-7.7-4.406-.234-.304-.234-.728 0-1.032 1.407-1.821 2.942-3.088 4.598-3.781zm1.596 1.594l1.311 1.31C8.121 7.702 7.594 8.29 7.594 9c0 .777.63 1.406 1.406 1.406.71 0 1.298-.527 1.393-1.211l1.31 1.311c-.529.947-1.541 1.588-2.703 1.588-1.709 0-3.094-1.385-3.094-3.094 0-1.162.64-2.174 1.588-2.703zM9 4.078c2.874 0 5.452 1.495 7.7 4.406.234.304.234.728 0 1.032-.552.714-1.124 1.343-1.714 1.886l-1.194-1.194c.305-.277.606-.582.904-.917l.23-.264.022-.027-.087-.102C13.155 6.91 11.328 5.886 9.36 5.776L7.757 4.174c.408-.064.822-.096 1.243-.096zm3.048 4.386L9.536 5.952c1.279.224 2.288 1.233 2.512 2.512z" transform="translate(-282 -352) translate(10 316) translate(0 24) translate(272 12)"/>
                        <path d="M1.372 1.372c.321-.32.837-.33 1.168-.025l.025.025 14.063 14.063c.33.33.33.863 0 1.193-.321.32-.837.33-1.168.025l-.025-.025L1.372 2.565c-.33-.33-.33-.863 0-1.193z" transform="translate(-282 -352) translate(10 316) translate(0 24) translate(272 12)"/>
                    </g>
                </g>
            </g>
        </g>
    </g>
</svg>
