<svg xmlns="http://www.w3.org/2000/svg" width="18" height="18" viewBox="0 0 18 18">
    <g fill="none" fill-rule="evenodd">
        <g fill="#23233F" fill-rule="nonzero">
            <g>
                <g>
                    <g>
                        <g>
                            <path d="M9 4.078c2.874 0 5.452 1.495 7.7 4.406.234.304.234.728 0 1.032-2.248 2.911-4.826 4.406-7.7 4.406-2.874 0-5.452-1.495-7.7-4.406-.234-.304-.234-.728 0-1.032C3.549 5.573 6.127 4.078 9 4.078zm.073 1.688H9c-2.132 0-4.098 1.048-5.925 3.207L3.052 9l.087.102c1.788 2.084 3.709 3.108 5.788 3.132H9c2.132 0 4.098-1.048 5.925-3.207L14.948 9l-.087-.102c-1.788-2.084-3.709-3.108-5.788-3.132zM9 5.906c1.709 0 3.094 1.385 3.094 3.094 0 1.709-1.385 3.094-3.094 3.094-1.709 0-3.094-1.385-3.094-3.094 0-1.709 1.385-3.094 3.094-3.094zm0 1.688c-.777 0-1.406.63-1.406 1.406 0 .777.63 1.406 1.406 1.406.777 0 1.406-.63 1.406-1.406 0-.777-.63-1.406-1.406-1.406z" transform="translate(-378 -337) translate(106 115) translate(0 186) translate(0 24) translate(272 12)"/>
                        </g>
                    </g>
                </g>
            </g>
        </g>
    </g>
</svg>
