<svg xmlns="http://www.w3.org/2000/svg" width="34" height="34" viewBox="0 0 34 34">
    <g fill="none" fill-rule="evenodd">
        <g fill="#23233F" fill-rule="nonzero">
            <g>
                <g>
                    <g>
                        <path d="M17 2.125c8.215 0 14.875 6.66 14.875 14.875S25.215 31.875 17 31.875 2.125 25.215 2.125 17 8.785 2.125 17 2.125zm0 1.594C9.665 3.719 3.719 9.665 3.719 17c0 7.335 5.946 13.281 13.281 13.281 7.335 0 13.281-5.946 13.281-13.281 0-7.335-5.946-13.281-13.281-13.281zm-4.696 7.458L17 15.872l4.696-4.695c.31-.31.815-.31 1.127 0 .31.312.31.816 0 1.127L18.127 17l4.696 4.697c.31.31.31.815 0 1.127-.312.31-.816.31-1.127 0L17 18.127l-4.696 4.696c-.31.31-.815.31-1.127 0-.31-.312-.31-.816 0-1.127l4.696-4.697-4.696-4.695c-.31-.31-.31-.815 0-1.127.312-.31.816-.31 1.127 0z" transform="translate(-814 -1245) translate(533 1201) translate(0 25) translate(281 19)"/>
                    </g>
                </g>
            </g>
        </g>
    </g>
</svg>
