<svg xmlns="http://www.w3.org/2000/svg" width="30" height="30" viewBox="0 0 30 30">
    <g fill="none" fill-rule="evenodd">
        <g fill="#A01C2B" fill-rule="nonzero">
            <g>
                <g>
                    <path d="M15 1.875c7.249 0 13.125 5.876 13.125 13.125S22.249 28.125 15 28.125 1.875 22.249 1.875 15 7.751 1.875 15 1.875zm0 1.406C8.528 3.281 3.281 8.528 3.281 15c0 6.472 5.247 11.719 11.719 11.719 6.472 0 11.719-5.247 11.719-11.719 0-6.472-5.247-11.719-11.719-11.719zm0 15.938c1.424 0 2.578 1.154 2.578 2.578S16.424 24.375 15 24.375s-2.578-1.154-2.578-2.578 1.154-2.578 2.578-2.578zm0 1.406c-.647 0-1.172.525-1.172 1.172 0 .647.525 1.172 1.172 1.172.647 0 1.172-.525 1.172-1.172 0-.647-.525-1.172-1.172-1.172zm0-15c1.37 0 2.489 1.067 2.573 2.415l.005.163v7.5c0 1.424-1.154 2.578-2.578 2.578-1.37 0-2.489-1.067-2.573-2.415l-.005-.163v-7.5c0-1.424 1.154-2.578 2.578-2.578zm0 1.406c-.604 0-1.101.457-1.165 1.044l-.007.128v7.5c0 .647.525 1.172 1.172 1.172.604 0 1.101-.457 1.165-1.044l.007-.128v-7.5c0-.647-.525-1.172-1.172-1.172z" transform="translate(-81 -135) translate(71 120) translate(10 15)"/>
                </g>
            </g>
        </g>
    </g>
</svg>
