<svg xmlns="http://www.w3.org/2000/svg" width="13" height="13" viewBox="0 0 13 13">
    <g fill="none" fill-rule="evenodd">
        <g fill="#23233F">
            <g>
                <g>
                    <g>
                        <g transform="translate(-231 -1895) translate(0 1702) translate(10) translate(66 185) translate(155 8)">
                            <path fill-rule="nonzero" d="M6.5.813C3.359.813.812 3.358.812 6.5c0 3.141 2.547 5.688 5.688 5.688 3.141 0 5.688-2.547 5.688-5.688C12.188 3.359 9.64.812 6.5.812zm0 1.218c2.468 0 4.469 2.001 4.469 4.469 0 2.468-2.001 4.469-4.469 4.469-2.468 0-4.469-2.001-4.469-4.469 0-2.468 2.001-4.469 4.469-4.469z"/>
                            <path fill-rule="nonzero" d="M6.5 3.047c1.155 0 1.95.35 2.392.969.155.215.253.445.306.678.02.086.032.169.038.247.005.054.006.094.006.137 0 1.16-.757 1.828-2.063 1.991l-.07.008v.337c0 .329-.26.597-.586.609H6.5c-.329 0-.597-.26-.609-.586V6.5c0-.337.272-.61.609-.61h.09c.058 0 .115-.002.17-.005l.08-.004.077-.005c.808-.062 1.106-.325 1.106-.798 0-.03-.002-.063-.014-.113-.019-.083-.053-.164-.108-.24-.196-.274-.616-.46-1.401-.46-.091 0-.178.002-.26.006l-.08.004-.077.005c-.808.063-1.106.325-1.106.798 0 .337-.273.61-.61.61-.336 0-.61-.273-.61-.61 0-1.349 1.024-2.031 2.743-2.031z"/>
                            <circle cx="6.5" cy="9.344" r="1"/>
                        </g>
                    </g>
                </g>
            </g>
        </g>
    </g>
</svg>
